<?xml version="1.0" encoding="UTF-8"?>
<!DOCTYPE svg PUBLIC "-//W3C//DTD SVG 1.1//EN" "http://www.w3.org/Graphics/SVG/1.1/DTD/svg11.dtd">
<!-- Creator: CorelDRAW 2020 (64-Bit) -->
<svg xmlns="http://www.w3.org/2000/svg" xml:space="preserve" width="297mm" height="210mm" version="1.1" style="shape-rendering:geometricPrecision; text-rendering:geometricPrecision; image-rendering:optimizeQuality; fill-rule:evenodd; clip-rule:evenodd"
viewBox="0 0 29700 21000"
 xmlns:xlink="http://www.w3.org/1999/xlink"
 xmlns:xodm="http://www.corel.com/coreldraw/odm/2003">
 <defs>
  <style type="text/css">
   <![CDATA[
    .str3 {stroke:#088438;stroke-width:233.75;stroke-linecap:round;stroke-linejoin:round;stroke-miterlimit:22.9256}
    .str4 {stroke:#088438;stroke-width:233.75;stroke-linecap:round;stroke-linejoin:round;stroke-miterlimit:22.9256}
    .str2 {stroke:#088438;stroke-width:233.75;stroke-linecap:round;stroke-linejoin:round;stroke-miterlimit:22.9256}
    .str7 {stroke:#088438;stroke-width:233.75;stroke-linecap:round;stroke-linejoin:round;stroke-miterlimit:22.9256}
    .str5 {stroke:#088438;stroke-width:233.75;stroke-linecap:round;stroke-linejoin:round;stroke-miterlimit:22.9256}
    .str6 {stroke:#088438;stroke-width:233.75;stroke-linecap:round;stroke-linejoin:round;stroke-miterlimit:22.9256}
    .str0 {stroke:#088438;stroke-width:701.26;stroke-linecap:round;stroke-linejoin:round;stroke-miterlimit:22.9256}
    .str1 {stroke:#088438;stroke-width:701.26;stroke-linecap:round;stroke-linejoin:round;stroke-miterlimit:22.9256}
    .fil2 {fill:none}
    .fil1 {fill:#FEFEFE}
    .fil0 {fill:#93C02C}
   ]]>
  </style>
 </defs>
 <g id="Слой_x0020_1">
  <metadata id="CorelCorpID_0Corel-Layer"/>
  <circle class="fil0" transform="matrix(0.539124 -0.00128137 0.00128137 0.539124 14635.2 9685.01)" r="17159.52"/>
  <path class="fil1" d="M7555.76 5115.85l3196.03 -9.28c-1924.76,1414.84 -3029.19,3992.54 -1469.16,5754.31l1217.48 -2.9c-2144.89,-2742.06 1049.12,-5054.67 2785.4,-6927.97l-5732.64 -31.64 2.89 1217.48zm9472.15 6039.94l1235.42 -2.94c91.59,-2001.34 3126.23,-1079.13 1706.51,814.87 -848.54,1464.61 -3089.23,2159.24 -3209.94,3996.33l4510.6 -16.98 -2.94 -1235.44c-1094.31,6.56 -1545.03,48.2 -2639.34,54.76 1330.76,-1263.93 3307.53,-2589.29 2652.57,-4521.91 -431.9,-1274.48 -2342.32,-1550.65 -3335.07,-804.94 -478.88,359.7 -853.86,984.39 -917.81,1716.25zm-4657.98 -308.73l2.96 1243.39c720.92,-80.13 1579.69,-200.91 2141.92,-727.79l11.9 4603.89 1235.42 -2.94 -23.46 -7280.61c-207.67,763.81 -714.61,1342.37 -1422.58,1709.68 -643.87,334.08 -1477.15,430.66 -1946.16,454.38z"/>
  <path class="fil2 str0" d="M15390.8 1521.24c-1732.55,1757.34 112.26,4176.66 320.23,5775.27 87.03,574.51 121.94,1424.67 -335.93,2129.46 -756.39,1135.35 -2244.92,1434.34 -2696.5,1465.54"/>
  <path class="fil2 str1" d="M13236.48 4251.06c-1560.58,1252.5 -4449.17,3447.44 -2767.03,6287.28"/>
  <path class="fil2 str2" d="M12858.8 6352.34c-2813.46,3398.54 281.97,5616.06 -3449.73,8778.47"/>
  <path class="fil2 str3" d="M11509.64 9880.33c668.04,-724.84 1525.71,-1570.3 3165.67,-1537.68"/>
  <path class="fil2 str3" d="M11690.38 8609.42c307.5,-710.91 1383,-1164.77 2223.67,-1080.77"/>
  <path class="fil2 str4" d="M12186.12 7326.29c452.39,-479.06 997.85,-531.66 1480.65,-515.84"/>
  <path class="fil2 str5" d="M12211.36 7281.37c53.92,-432.86 -127.66,-660.82 -277.31,-930"/>
  <path class="fil2 str6" d="M11650.75 8744.32c181.41,-550.56 -163.06,-1128.18 -504.17,-1475.7"/>
  <path class="fil2 str7" d="M11515.95 9881.98c-65.64,-473.54 -93.76,-774.12 -739.59,-1531.1"/>
 </g>
</svg>
